<mxfile host="65bd71144e">
    <diagram id="cXv1TGkvdeQWCVtMWQVC" name="Page-1">
        <mxGraphModel dx="2351" dy="1003" grid="1" gridSize="10" guides="1" tooltips="1" connect="1" arrows="1" fold="1" page="1" pageScale="1" pageWidth="850" pageHeight="1100" math="0" shadow="0">
            <root>
                <mxCell id="0"/>
                <mxCell id="1" parent="0"/>
                <mxCell id="4" style="edgeStyle=none;html=1;exitX=0;exitY=1;exitDx=0;exitDy=0;entryX=0.667;entryY=-0.017;entryDx=0;entryDy=0;entryPerimeter=0;" parent="1" source="3" target="5" edge="1">
                    <mxGeometry relative="1" as="geometry">
                        <mxPoint x="-270" y="340" as="targetPoint"/>
                    </mxGeometry>
                </mxCell>
                <mxCell id="27" style="edgeStyle=none;html=1;exitX=0.5;exitY=1;exitDx=0;exitDy=0;entryX=0.5;entryY=0;entryDx=0;entryDy=0;" edge="1" parent="1" source="3" target="9">
                    <mxGeometry relative="1" as="geometry"/>
                </mxCell>
                <mxCell id="32" style="edgeStyle=none;html=1;exitX=0.25;exitY=1;exitDx=0;exitDy=0;entryX=0.533;entryY=0;entryDx=0;entryDy=0;entryPerimeter=0;fontSize=14;" edge="1" parent="1" source="3" target="12">
                    <mxGeometry relative="1" as="geometry"/>
                </mxCell>
                <mxCell id="3" value="" style="whiteSpace=wrap;html=1;" parent="1" vertex="1">
                    <mxGeometry x="-200" y="56.08" width="430" height="220" as="geometry"/>
                </mxCell>
                <mxCell id="5" value="HEADER&lt;br&gt;" style="whiteSpace=wrap;html=1;" parent="1" vertex="1">
                    <mxGeometry x="-700" y="450" width="235" height="110" as="geometry"/>
                </mxCell>
                <mxCell id="17" style="edgeStyle=none;html=1;exitX=0.25;exitY=1;exitDx=0;exitDy=0;" parent="1" source="9" target="13" edge="1">
                    <mxGeometry relative="1" as="geometry"/>
                </mxCell>
                <mxCell id="18" style="edgeStyle=none;html=1;exitX=1;exitY=1;exitDx=0;exitDy=0;" parent="1" source="9" target="14" edge="1">
                    <mxGeometry relative="1" as="geometry"/>
                </mxCell>
                <mxCell id="9" value="PlantPage" style="whiteSpace=wrap;html=1;" parent="1" vertex="1">
                    <mxGeometry x="65" y="390" width="235" height="110" as="geometry"/>
                </mxCell>
                <mxCell id="12" value="NewPlantForm" style="whiteSpace=wrap;html=1;" parent="1" vertex="1">
                    <mxGeometry x="-350" y="450" width="240" height="110" as="geometry"/>
                </mxCell>
                <mxCell id="13" value="Search" style="whiteSpace=wrap;html=1;" parent="1" vertex="1">
                    <mxGeometry x="13.75" y="610" width="216.25" height="120" as="geometry"/>
                </mxCell>
                <mxCell id="22" style="edgeStyle=none;html=1;exitX=0.75;exitY=1;exitDx=0;exitDy=0;" edge="1" parent="1" source="14" target="24">
                    <mxGeometry relative="1" as="geometry">
                        <mxPoint x="733" y="820" as="targetPoint"/>
                    </mxGeometry>
                </mxCell>
                <mxCell id="14" value="PlantList" style="whiteSpace=wrap;html=1;" parent="1" vertex="1">
                    <mxGeometry x="300" y="600" width="230" height="130" as="geometry"/>
                </mxCell>
                <mxCell id="24" value="Plant Card&lt;br&gt;state: setIsSoldOut" style="whiteSpace=wrap;html=1;" vertex="1" parent="1">
                    <mxGeometry x="350" y="870" width="170" height="100" as="geometry"/>
                </mxCell>
                <mxCell id="25" value="App =&lt;br style=&quot;font-size: 14px;&quot;&gt;state: setPlants" style="text;html=1;strokeColor=none;fillColor=none;align=center;verticalAlign=middle;whiteSpace=wrap;rounded=0;fontSize=14;" vertex="1" parent="1">
                    <mxGeometry x="-120" y="100" width="280" height="120" as="geometry"/>
                </mxCell>
                <mxCell id="28" value="&lt;br style=&quot;font-size: 16px;&quot;&gt;props:plants" style="text;html=1;align=center;verticalAlign=middle;resizable=0;points=[];autosize=1;strokeColor=none;fillColor=none;fontSize=16;rotation=30;" vertex="1" parent="1">
                    <mxGeometry x="110" y="300" width="110" height="50" as="geometry"/>
                </mxCell>
                <mxCell id="30" value="props: searchQuery&lt;br&gt;props: handleSearchChange" style="text;html=1;align=center;verticalAlign=middle;resizable=0;points=[];autosize=1;strokeColor=none;fillColor=none;fontSize=14;rotation=0;" vertex="1" parent="1">
                    <mxGeometry x="-50" y="560" width="200" height="50" as="geometry"/>
                </mxCell>
                <mxCell id="31" value="props: filteredPlants" style="text;html=1;align=center;verticalAlign=middle;resizable=0;points=[];autosize=1;strokeColor=none;fillColor=none;fontSize=14;rotation=45;" vertex="1" parent="1">
                    <mxGeometry x="290" y="520" width="150" height="30" as="geometry"/>
                </mxCell>
                <mxCell id="34" value="&lt;span style=&quot;font-size: 16px;&quot;&gt;props: onAddPlant&lt;/span&gt;" style="text;html=1;align=center;verticalAlign=middle;resizable=0;points=[];autosize=1;strokeColor=none;fillColor=none;fontSize=14;rotation=-45;" vertex="1" parent="1">
                    <mxGeometry x="-280" y="350" width="160" height="30" as="geometry"/>
                </mxCell>
                <mxCell id="35" value="" style="shape=image;verticalLabelPosition=bottom;labelBackgroundColor=default;verticalAlign=top;aspect=fixed;imageAspect=0;image=data:image/png,iVBORw0KGgoAAAANSUhEUgAAALwAAADXCAYAAACgejsyAAAaxUlEQVR4nO2dXWgbd7qHH1uxHEd2juvEdUKctbNZp1586FHWPfRC0dbLQjlEvdgtnAv5AxI2LYudwrkw+aKXxfkgFwttwpIEWtYfulj2fMDKF4HDSerqotBQs6xpEm2IvHFJG8dGG1txI0fyuZBmNJJmZEmWZEvzPiCwRjPvTMhPf73zl+aZqo6OQ2sIgkmo3uwDEIRSIoEXTIUEXjAVEnjBVEjgBVMhgRdMhQReMBXb8t0wun0nob2HCTcdJLKjCQDL80Wsiw+wPf6a6h+eFewgBaFQVOXzxdPzPa+z3PE2a1X6HxBVa1Hq/TfZ8d1fNnyAglBIch7hn+95naVD/5ZxnbWqanWdcg39y4YWACLWBqojL6h6EWLbyuKm1REKQ06Bj27fyXLH21mvv9zxNtuDgbJqbyLWelYb97NmsarLotigromXDS3UBB9hCS+XrI5QWHI6aQ3tPWzYxuixVlVNaO/hnA8qlQ9bDvHVjxrp33ClzESs9YR3HUwKqZY1i5XwroNErPU516kOh3KuIxSenAIfbjqY8w7y2SaJmkZ+WRvkIQ0cqdlYqfVYbdyf9Lw6HGL7k2+Swqq3XjZ1ahf+Rk3wUU51hMKTU0ujzMbkQtS2i3ff/XXs72iU+fmn3L17l4WFhay277c1wLPv+B/28BtbDQRX46/s4I+v7WJhbonXWl+lAWDlCb/7e5AxgJpG/u/HVv53Dn7V2hjbJDjHG98/193Py7qmtJG9OvKCqkiY6siLWDsSZ81i5WVdk24vrlcnarXxsqGFbUvfA4mgZ6ojFIe8pyU/GB7go069j/4gfzjxJz6IP1tbW+M///O/ALBYLLS2tvLWWz/n9u3Pswh9DUd2wr3Hq4yxxG9+/AofBp/wkfp6HW/sWuJ39+4zRqz1+Y+WMGNqqBv5Vf0cb9x7AtTw+x8d4P8aH/IL9U2TYK3WlrYsaqlltXE/L+t03ujb9D9utHW0QV6zWFmzWNVl6uhuUEcoDjkF3vJ8kZe23QB8fHmUj7PcRiESiTA7OwtAZ2cnPp8v88a2V3iDJX63ChDi3sqr/IvtCagdxgpfPY6P6MBHi0/45Y/r+fD75/E3RZD/VsO/ym8Xgny1y0Z/MLGNQtRSm7b7bUvfYQkvE7XUErUmvyEi1ga28X3aNkqdmuAjw5F728oikR1NRK02wzpCcciph7cuPsh5B3rbzM3N0dy8e91tP6xvZOlZKB7OWGAP1O8w3mA1zNNMBcNhlgxesoTTX4nueMWwVHXkRcY6LxtaeLHrJ0kP5SQ1Yq1X30BGdYTikNMIb3v8NSut/5r1TE3VWhTb46/TlkciEaqr16uxg39phAYO8FWLdnktv198zm/TuxKosbJ7JUzAqKTVSsOL5bTRHaDqRQjqdZYRC3HqCK+8ZlRHaWHUQ4tPQyozOOvVEYpDTiN89Q/PqPffzHr9ev/NvOfg+xt3cSA4xxv37ic9/jtYx2s2pe+t440mZcSv4fd7XwX1EwGgkV82Kuvu4I+tjTxc1j9prY6EqYqE05brTR1WRcKG7Ypenepw7MumtLBnqCMUh5xPWpVvTov704Iajuys4+FCejg/Wg7yq9ZX+DC4DKzw1Yt6vnqtNfZicI43kk5Ig9xjD1+9VgfA0vcP+YXBgFoVCVMTfJQUSKNpw9TpxfXqrFlqeLHrJ2mfEpnqCMUhr1maHd/9he3BQBF/PLbKb/9+X/+l0BPeuAewgz+qz58YVpoLPuK3wez2agkvs/3JN7ww+PJJCfN635Cm1kltb7KtIxSevKclq394RsPD2/DwdiGPZ9OpioSpXXhAxFrPWq2NqKVWPRFV5tFLWUcoLHkHvpJRe+sN9teFqiMUjjIO/HP+/Z7+CSgAq0F+ca90RyOUB3LFk2AqJPCCqZDAC6ZCAi+YCgm8YCok8IKpkMALpkICL5gKCbxgKiTwgqmQwAumQgIvmAoJvGAqyvjXkpWLeC2Lx6YG3mKxEIlENvMQthTitSw+m9rStLa2bubuN4Rj+Do3hh0Fqydey9KwqYHv7v4ZbW1tWCyWAlRzcPradU47U5f3cd4zUnQR60YRr2Vp2NSW5vbtz+ns7OTwYXsWnhpUZV+lIV7L0rGpgV9YWFhft1cE+i9M4GqL/R26c4UTl2PH4Bi+zsluJVwBvO5zCceN8xQ3Bu2x6C1N472fTc0+znt6CN6Zx97dnrQvLeK1LB2mm5Z0DF/HhRe3uxe3+wr+Q0OcHwBwcGS3n0/cvbjdvXhn23Fd6Itv1cf5wQ78V2OvuUehp9uWRU0AG/bdM7jdvbphB2OvZU3wUVpLA7FZl0x1aoKP0h6KHGrbyqJa06hOJVNh05I27IMTeAZTlweYAaCPd7ph+up4fLmPL+4f43iLA/Bx8UwikGMzAVxdsb8dwz20z97CPRV/ceoSn755nePr1gQIMe0dJxN6Kr/ojlcMZ1IyeS2VFiZVba6IYc3utaywwIeYvvoeF6e0y/o47+nSPNd5U8y2Az4YGMFztF2zfCZR+amhsTJDzewQr2XpqLDAZ0NKb64wMILHGeQTdy8+5bnmfWLbHX9TxDmw20ZCVWxQk760JXooPsrUE858vZapU5LitUxgsh5+nJmk3jyBo6UZFr9VI93flRihfV/6CbX1JKY8nafoaVu/ZrYo6j0tq437Ce86yGr9nqTl2XgttSheS23Y16tTyZhuhB87c4V914bweFzxJfE26PJnHNEsD8xqWpipS5xoH8GjtC1L03jvhOhZr2ZSa5UZ8VqWhrxuTFwI3n331xU7r74R1izWgvgoC1Wn0jDdCL/VEa9lcTFZDy+YHQm8YCok8IKpkMALpkICL5gKCbxgKiTwgqmQwAumQgIvmAoJvGAqJPCCqZDAC6ZCAi+YCgm8YCok8IKpkN/DC3lTjtJXkakWmP4LE/Q81RcuVQrlLH3d1MC3trYyOztboGoOTl8bws40n7x/CW3cHMPXOc5nBQphfD9ah9GsF/eZzO6ZnFAMCuq/o4/zHhdJ4o9C7zNLUu0HqSiyVuvCg4xh1atTHQ6pSpJs6+TKpga+u/tnAMzNzRVopA8Rws7xYQe+oo6w2ou0Y2+AG8OBIo/qRiqQ0qIna7UG/0648UdJ/pzVxv1YnnyTU53ahb/xsq4p6bX16uRKxclU/aNeGgePcdrpM7YGaD2RSpCcp7gxAJ8qo+rACJ6jJEI2MIKnawb3mVQhk4+LUy48XcnemvT9QGCyl7OjoDonJ/10HI2/Hh+xtX7Lk54J3lG3MSJl9NeO/M5T3BhsxH+nGXu3jcBkLzNdE/Q8nWa+2x7bZtaL+wyJGhk+OSpB+lqBMtVxzk524Rk4hWPqUmoE0XoiL04RC/K1Uzx834d/4BhHnOCbAkcLhJaa2ecEpmKemsDMOSB7J7zjzcbk/RwdoX9UGaVt2J3ExU+x0J4fGOfs5ffwpbU0hnvg9DUXzXeu4I5/uvRfmEj5tGmngyu43crrYOtu5Ja7l7Px/Xo8Abya5+cHxnXfZJUgfa3MacnRc3gXY61NKoonUh39R2cINDRyAB/fLtroeNMBODhyCPz3UZ/vawowozvS9nH+aDuBmfRR0Xf5XPJ+kl4NMT2qBHqcmVlobsn0ZmrH5ZnAE3/cGHbAgAs703yqaaXGvNNwyKF5Wwa4ldJqhe5442+62H5TnxsdRyVIXyt2WnLsjJcuT6y1+SL1xTaXRpoEECLohIszAVxd7eDcR8fiDCe+3McNV/w5QU2dZJdkwLDtSD3ZVKSu6Tx8mhA76aPTww+4kmxpAEx9y/xgFwdIa7A2TCVIXys28NrW5tsUl7uRp52pGQKeLvrbYX7mEkz1MT8Ye859ryZA2ZjF4n361d64dThV6logmvYRcx/Hce6jeSnIw8LvqSKkr5XZ0ijEWxuXxuXu+9IP3cd0bo0DECC41EyPs5lgAGIf8bHn/i9zHC+d+2hmnm+VN8VAF9n7hLNkdIZAQ3Lr1u+yw31fwUd3SMhaU8lX+pq0rETS18oOPLHWJql3nrrEicn5WEui9MSqCNXHF/fBhp8v4kEdm5nH1qAJbrZMXeLTO82JvrsLMgm3kxj1Mo2dk54JzY0V9BjnrNvLfPeQ+m8p5pdelSB9FbekkDNrFuuGpa+FrJMLFdzDC8WiKhKmduHBhmWthaqTCxJ4IS/KVfpa8T28IGiRwAumQgIvmAoJvGAqJPCCqZDAC6ZCAi+YCgm8YCok8IKpkMALpkICL5gKCbxgKiTwgqko6e/hXzQdZGXPP7P6T/uJ1uwAoHr1OTX/eETdd3+ldvFBqQ5FMCklC/yzjrdZ2WvPuE7d42l2+m+W4nAqlnL0PZaSkgQ+m7ArSOjzQ8/TqJDL1UOFqrNVKXoP/6LpYNZhB1jZa+dFk7G7MH/6OO+5bnDxdnmjXPisF1JIeBr1LrZer47WN5Ntna1M0a94Wtnzz3ltk18/ny4dNVRy5EmaHXhgBM/RpD1mofAoLOXueywlRR/hV/9p//orFWCbBDFtnNvdizt+RX/mK/8LwKw3vr9e3JPz2AdH6C/yLhXW8z1qUTyN2dZRfY8ri0n2gEx1tjpFH+GV2Zhct3n33V/H/o5GmZ9/yt27d1lYWMix0jh/vtPDcR11nFZammT1igtIb02CKz5yxz4lSGiy24bweFz6Nt9RL9POYzEnJUYyVUj+NArgnQRX14wqMk06vgyC00rwPZaSoge+evW5GvoPhgf4qFOvzwzyhxN/4gPNNorCw2Kx0Nrayltv/Zzbtz/PI/R6ODiy288n7pjbsf/CBK4LfYypoWrH1eXF7T4XfwMc47TzPS6+78vphgfGMtWYBJXJXtyqTdgFs3ER38AIJw8lH5+RjtvI92gJLxO11KbZwCLWBraRbgTQ+h6NZmO2rSwS2dFE1GozrLPVKXrga/7xiBe7XwPg48ujfJzlNgqRSES9aUJnZ2dutmHnKY53g/+qD5I6ex8Xz2gEpDMBXEkWvABeJfxTPvwDdhrbgSz6csfwMez4+WQKfFPnEgaw0RkCR+M7iUtQP1FH+7gWsAvAwWlnO4GpXnXbMcV5qeMTqwTfYykpeuDrvvurGvhctkllbm6Ow4ezme2JWXZjqtQMJ5CpJ5uzRppTH98uDtGYaZdaOevSdIY7d2hkqqkS1NR/xdEJPEc1C5aCyQ7JOJXgeywlRQ987eID6h5P5zQPrzdDE4lEsrppQlZ3ylD86+7exM0PNuI51e2x15GppkhQHS3Nmm2zn+lRPI2pJ5z5+h5TpyRL4XssJSX5Lc1O/03qHk+vu16pvnRytDQnjbD9XQXXnGaWqcYlqO+os0d9vKOeQMf8lvaBU1ndeqESfI+lpGTmsZ3+m9QuPNgSv6XxXf6MI9eG1DYkMJu15pQx7zQ9gxlmaRSmLvHpm9c5qbRXswGNTHWcs1f3cWNQaVsCeCcDtHcpx/ceBy5McNIzwcn4FsYOerCEl9n+5JsNexpT66S2N5XwTeumyVTzoZIFrIW40+CaxVoQT2Oh6mxFxC25FUiaTcqfcvU9lhIJ/KaQ/hOIwGRvSX+OYFYk8JvCOGfdpb+psCBXPAkmQwIvmAoJvGAqJPCCqZDAC6ZCAi+YCgm8YCok8IKpkMALpkICL5gKCbxgKiTwgqmQwAumQn4tWaaINDU/yi7wFouFSCSy2YexcRTh03oXnKegJzuNYoO6Jl42tGxImppPnXKj7ALf2tqqemoKgjPZDpbJ8rXZpNoDUlFkp9aFBxnDqlenOhxSlR7Z1ilHyq6H7+7+GW1tbVgslo0Xc57ixmAH/qu9qhvS+3RfVraAzUBPdrr9yTdJhl+99bKpU7vwN137QaVRdiP87duf09nZyeHD9qw8Nete9L3k5wvNpXVjly9pXtReipfsium/MIGrTamRkC/FVHzTzHfbaVeXJ1/SF5js5ayiMNAKoTJ8uqwnTY0mPqNU2aleL55Rmhq/SFsJeqY65UrZBX5hYSE33V4mpnz4B4Y4eaEPX1rQUvyPzlPcGByhf+ocY/TRhRe3ezy+3hDHhx344sYBW3cjt9y9nAVUb6Smzmn1YtZUh2UPp53jute2ijS1MJRdS1NYfFx8vxcvLjyeCTwX+hIvxf2Pf1ZcMFM+/EvNcSvwOGfVN4iPL+4ntxShO97EiehAF+2z3oRTZuoSF1W/TIrDcskWc1jqYCRNrQk+SmtpIDbrkqlOTfBR2qMqEo7VXVlUaxrVKVfKboQvBmNnehkj1o54ru1LuCEb7EkyJIBAXKqarNuG0B392o6WZkJPsxE9ZXZYijS1MEjgNYyducK+a8c44ow7Hw16asfwdU7uvhVvaRSJkjG23frm31wQaWphMHdLMzCSfHcQp4MO5RN8dIZAm0v37iEHdts0o7aDI4fS+2sF35d+Qto6zlOczuOOJIrsNJV8palJyypQmmqEuUf4US/Ba1ottXYmJtX/iDobM3bGS5dnCI9nCAgRmM0wCk5d4gSnNHVCTF/N/VAVr6M2kEbThtlIU7V1FGlq6qdEOUtTjRC3ZJmxZrFuWJpayDrlhrlH+DKkKhKmduHBhmWnhapTbkjgyxCRpuaPuU9aBdMhgRdMhQReMBUSeMFUSOAFUyGBF0yFBF4wFRJ4wVRI4AVTIYEXTIUEXjAVEnjBVEjgBVOx5X8PH92+k9Dew4SbDqrXYFqeL2JdfIDt8ddU//Bsk49QKCe2dOCf73md5Y63WavS/yCqWotS77/Jju/+UuIjE8qVLft7+Od7Xmfp0L9lXGetqlpdR0JvjIhXE2zJHj66fSfLHW9nvf5yx9tEt+8swpH0cd5zndPOIpTWwTF8Hc+1UwVT/UWs9fzw6k9Zrd/Dav2emJ6jronVxv388OpPdS8AL2adrcCWHOFDew8btjF6rFVVE9p7mIaHt/PYW7IGDyB05wonLhfIboai39PUHBjB0zWTpgDxXX5vfZnHwAgeZzDhzjFAxKv6bMkRPtxk/B9VyG0SBPC6FaGql/nuIV09Rzkh4lV9tuQIn2rEyoaobRfvvvvr2N/RKPPzT7l79y4LCws5Vhrnz3d6ON6S3lgk28YCeBW3u+J6nwRXXIwa+5SA09eGsDcAbUN4PK7ENjqogqf4yK8VtobuXOFTjqn7P+mZ4J3J3oTCT4OIV43ZkoHX8sHwAB91pqskIMgfTvyJD+LP1tbWVIWHxWKhtbWVt976Obdvf55H6PVwcGS3n0/cCUuw60IfY2pbkipGPcZp53tcfN+X3tJks7fh67hUYauCD18WLY2IV43ZkoG3PF/kpW03AB9fHuXjLLdRiEQi6k0TOjs7c7MNO09xvBv8V32Q1Nn7uHgmUWdsJoCrS7thihh1wB4To+qYgLPB9/08Jw/FXPW5nk0YiVct4WWilto04VLE2sA20tUcWvGq0ci9bWWRyI4molabYZ2txJYMvHXxgRr4XLZJZW5ujsOH7Vls3Y7LM4ELSPXAJ6F1uQPMzhjUyyxGzYrRc3zScj0mc9X457NBxKvGbMnA2x5/zUrrv2Y9U1O1FsX2+Ou05ZFIJKubJiT140YorYS7Nxa8gRE8XZk22DjKrI1j+LqBw14fEa8asyVnaap/eEa9/2bW69f7bxb9JwaOlmZY/FYdZfu7DETuRcD3/Tw0ZX8rHhGvGrMlR3hIfHO6VX5a4Lv8GUeuxWZaAAKz2TjfY4x5p+kZTJmlaXOptUCZhUmQPiMUb2lGvUw7hzLO0oh41Zgt/Vsa2PiPx8wsYBXxajpbdoRXqP7hWewb1Ly+RTU3Il5NZ8sHXtgYIl5NZkuetApCsZDAC6ZCAi+YCgm8YCok8IKpkMALpkICL5gKCbxgKiTwgqmQwAumQgIvmAoJvGAqJPCCqZDAC6ZCfh4s5Ew5uyorPvDRaBSLxUIkEtnsQyl7ItZ6Vhv3J135FMUGdU28bGjJ+sqnQtXJh4pvaebnn9La2lqy/fVfmODGcKF0qCViYATPhb6MqygXbetd5gcJx+R6YlW9Olr9X7Z18qXiR/i7d+/y1ls/B2Kemo2P9I6EPk9h1psmRt0QirovVR3iPMWNQXtClJejr2Yj6DkmrcG/E278UdIF3auN+7E8+SanOrULf1NtxNnWyZeKD/zCwgK3b39OZ2cnhw/bs/LUrH/Rt1bWFHsD3BgOFNQ4nErMYgDTV3sTkqiBEc4PgE/HXFBIKslVWfGBh1joc9Lt5YSPi1MuPF3tpEvxklXcCQ13H+c9PQQn/XQcjY/YyqeExm7m8kzQc+cKJ750cLx7Pl0WNXqOs/E/teJV7cgfE7T6mW6yY29QhFPa4wrgncz8L6wkV2XF9/CbykAXTMY13FenofuY5uYKNuxO+DSu6A60uWKK7tFzuK9OE4orvE9c9uF4swPb7EwGM1ofXXjjuu8rTGPnuPY8oq0DRntxu88xhoPT11yJ43LP0HU0s1TKyFVZE3yUpt+G2KxLpjo1wUdpD0X4tG1lUa1pVGcjSOA3TB/nj7YTmNHp4UfPJURJUz78S9oXQ0yPKv33ODOz0Kyj6FbXfppJ/DTOWfUcwscX91NCOHtL0wa5sDPNn0c1205mlkopSg4t0R2vGK6fyVUJsenIF7t+kvRQTlKL7ao0RUtTeGzYByfwDMaeBQwMYOknuCGmDSo+fBqiJ9Med+u1TJo9JZnKIHQnQzGNMjAbKslVKYHPiwyGYZVY2BunenGPKs+P5bU335d+jg920Q+6bY16I4W4S94xfJ3jmQo2JWu4HS3NGfevOCZTTzjzdVWmTkmW0lUpLU3RaKexIURQ6RacDjrybUmnLnFrth2XZ4R+7fL4LM2B3TZNy+PgyKH0k0yV0RkCDXbeUW/p08c73RnWJ6HT07LauJ/wroOs1u9JWp6Nq1KL4qpMvY9UsVyVMsIXjXHOTnbhUVqfpQCB9FZYn6lL3HJNJGZpLvsYO9PLw+GYL15VsM56cZ8B8NLlGcLjGQJCBGYztQLjnL26jxuDE3iOQmyWJkD7OupvS3iZ7U++2bBjMrVOantTbFfllpepCluLNYu1II7JQtXJFQm8YCqkhxdMhQReMBUSeMFUSOAFUyGBF0yFBF4wFRJ4wVRI4AVTIYEXTIUEXjAVEnjBVEjgBVMhgRdMhQReMBUSeMFUSOAFUyGBF0yFBF4wFRJ4wVRI4AVT8f+XEdtHPEH9QQAAAABJRU5ErkJggg==;" vertex="1" parent="1">
                    <mxGeometry x="-519" y="61.08" width="188" height="215" as="geometry"/>
                </mxCell>
                <mxCell id="36" value="props: plant.id&lt;br&gt;props: plant" style="text;html=1;align=center;verticalAlign=middle;resizable=0;points=[];autosize=1;strokeColor=none;fillColor=none;fontSize=14;" vertex="1" parent="1">
                    <mxGeometry x="340" y="780" width="110" height="50" as="geometry"/>
                </mxCell>
            </root>
        </mxGraphModel>
    </diagram>
</mxfile>